<?xml version="1.0" encoding="utf-8"?>
<!-- Generator: Adobe Illustrator 19.0.0, SVG Export Plug-In . SVG Version: 6.00 Build 0)  -->
<svg version="1.1" xmlns="http://www.w3.org/2000/svg" xmlns:xlink="http://www.w3.org/1999/xlink" x="0px" y="0px"
	 viewBox="0 0 960 560" style="enable-background:new 0 0 960 560;" xml:space="preserve">
<style type="text/css">
	.st0{fill:#B72374;}
	.st1{fill:#222222;}
	.st2{fill:#EC327D;}
	.st3{fill:#32DB64;}
	.st4{fill:#F53D3D;}
	.st5{fill:#F4F4F4;}
</style>
<g id="Layer_1">
	<path id="XMLID_22_" class="st0" d="M293.1,132.4c-3.6-6.8-9.6-12.6-17.8-17.4c-8.3-4.7-18.8-7.2-31.6-7.4
		c-8.4-0.2-16.4,0.6-24,2.5c-7.6,1.9-14.8,4.5-21.6,7.8c-6.8,3.3-13.2,7.2-19.2,11.7c-5.9,4.5-11.4,9.5-16.2,15
		c-3.8-5.7-6.4-12-7.9-18.8c-1.5-6.8-1.7-14.1-0.3-21.8c1.1-6.2,0.4-10-2.1-11.6c-2.5-1.5-5.8-1.4-9.7,0.5c-4,1.9-8.2,5.1-12.6,9.7
		c-4.4,4.6-8,10-10.7,16.2c-2.8,6.2-4.2,12.9-4.5,20.2c-0.2,7.3,2,14.4,6.6,21.5c2.6,4.4,5.7,8.4,9.3,11.9c3.5,3.5,7.3,6.7,11.2,9.6
		c-2.4,9-3.1,17.8-2,26.4c-7.5,1.3-14.9,3.4-22.3,6.1c-7.4,2.8-14.3,6.4-20.7,10.9c-6.4,4.5-12.2,9.9-17.5,16.2
		c-5.3,6.3-9.6,13.5-12.9,21.6c-6.6,16.5-8.9,31.4-6.9,44.6c2,13.2,6.9,24.6,14.9,34c7.9,9.5,18.1,16.7,30.6,21.8
		c12.4,5.1,25.8,7.6,40.2,7.6c14.3,0,27.1-2,38.3-5.9c11.2-4,20.7-9.3,28.3-15.9c7.6-6.6,13.1-14.1,16.4-22.5
		c3.3-8.4,4.2-16.9,2.6-25.4c-1.3-6.6-4.1-12.1-8.3-16.5c-4.2-4.4-8.9-7.9-14-10.4c-5.2-2.5-10.5-4.2-16-5c-5.5-0.8-10.2-0.8-14-0.2
		c-3.9,0.7-6.4,2-7.8,4c-1.3,2-0.4,4.4,2.6,7.3c6.2,6.2,9.9,13.2,11.2,21c1.3,7.8,0.5,15.2-2.3,22c-2.9,6.8-7.5,12.4-13.9,16.9
		c-6.4,4.4-14.1,6.2-23.1,5.3c-9.7-1.1-17.6-4.2-23.6-9.4c-6.1-5.2-10.4-11.5-13.1-18.8c-2.6-7.4-3.7-15.4-3.1-24
		c0.5-8.6,2.6-16.9,6.3-24.8c3.6-7.9,8.7-15.1,15.2-21.5c6.5-6.4,14.4-11,23.6-13.9c5.1,6.4,11.9,11.9,20.5,16.5
		c5.3,2.6,10.7,4.5,16.2,5.6c5.5,1.1,10.7,1.3,15.7,0.7c5-0.7,9.3-2.1,12.9-4.5c3.6-2.3,6.1-5.3,7.4-9.1c1.5-4.2,1.5-8.1-0.2-11.9
		c-1.7-3.7-4.4-7.1-8.3-10.1c-3.9-3-8.7-5.6-14.5-7.8c-5.8-2.2-12.3-3.9-19.3-5c0.2-1.5,0.4-3,0.7-4.3c0.2-1.3,0.5-2.8,1-4.3
		c14.3,3.1,28.5,4.3,42.6,3.6c15-0.4,27.6-3.1,38-8.1c10.4-5,18.3-10.9,24-17.8c5.6-6.9,8.9-14.4,9.9-22.5
		C298,146.6,296.7,139.2,293.1,132.4z M261.8,167.9c-5.5,5-13.7,8.2-24.5,9.7c-7.1,1.1-14.3,1-21.6-0.2c-7.4-1.2-14.6-3.5-21.6-6.8
		c5.5-9.3,12.3-17.2,20.3-24c8-6.7,16.8-10.5,26.3-11.4c10.4-0.9,18,0.5,23,4.1c5,3.6,7.3,8,6.9,13.2
		C270.2,157.9,267.3,162.9,261.8,167.9z"/>
	<path id="XMLID_18_" class="st0" d="M379.5,267.8c-6.6,9.5-13.9,18.1-21.8,25.8c-7.9,7.7-16.2,14.3-24.8,19.7
		c-8.6,5.4-17.4,9.6-26.4,12.6c-9,3-18.1,4.5-27.1,4.5c-10.1,0-18.7-2-25.8-6.1c-7.1-4.1-12.2-9.6-15.4-16.5
		c-3.2-6.9-4.4-15.1-3.6-24.6c0.8-9.5,3.8-19.5,9.1-30.1c3.7-7.5,8.6-14.6,14.7-21.5c6.1-6.8,12.8-12.6,20.2-17.2
		c7.4-4.6,15.1-7.7,23.3-9.1c8.1-1.4,16.2-0.5,24.1,2.8c6.6,2.6,11.4,6.3,14.4,11.1c3,4.7,4.4,9.7,4.3,14.9
		c-0.1,5.2-1.7,10.2-4.6,15c-3,4.8-7.2,8.6-12.7,11.2c-6.6,3.3-12.1,4.2-16.4,2.6c-4.3-1.5-7.1-4.2-8.3-7.9
		c-1.2-3.7-0.6-8.1,1.8-13.1c2.4-5,7-9.2,13.9-12.7c2-3.1,1.7-5.1-0.8-5.9c-2.5-0.9-6.1-0.2-10.7,2c-4.6,2.2-9.8,6.2-15.5,11.9
		c-5.7,5.7-10.8,13.7-15.2,23.8c-3.1,6.8-4.7,12.7-5,17.7c-0.2,5,0.5,9.1,2.1,12.6c1.7,3.4,3.9,6.1,6.8,7.9c2.9,1.9,5.9,3.1,9.3,3.8
		c5.7,1.1,12.1,0.7,19.2-1.2c7-1.9,14.1-4.7,21.2-8.6c7.1-3.9,13.8-8.5,20.3-14c6.5-5.5,12.2-11.6,17-18.2c2.6-3.3,5.2-5.5,7.8-6.6
		c2.5-1.1,4.6-1.2,6.1-0.3c1.5,0.9,2.3,2.5,2.3,5C383.1,261.3,381.9,264.3,379.5,267.8z"/>
	<path id="XMLID_27_" class="st0" d="M508.2,253.6c-1.7-0.9-3.8-0.8-6.4,0.3c-2.6,1.1-5.1,3.4-7.3,6.9c-2,3.1-4.5,5.3-7.4,6.8
		c-3,1.4-6.1,2.3-9.3,2.5c-3.2,0.2-6.3-0.1-9.4-1c-3.1-0.9-5.7-2-7.9-3.3c2.6-8.4,3.8-16.2,3.5-23.6c-0.3-7.4-2-13.8-5-19.2
		c-3-5.4-7.3-9.7-12.9-12.9c-5.6-3.2-12.4-4.8-20.3-4.8c-8.4,0-16.5,1.7-24.3,5c-7.8,3.3-15.2,7.8-22,13.4
		c-6.8,5.6-12.8,12.2-18,19.8c-5.2,7.6-9.2,15.7-12.1,24.3c-2.9,8.6-4.2,16.7-4.1,24.5c0.1,7.7,1.7,14.4,4.6,20
		c3,5.6,7.3,10.1,13.1,13.4c5.7,3.3,12.7,5,20.8,5c6.8,0,13.6-1.2,20.3-3.5c6.7-2.3,13.1-5.6,19-9.7c5.9-4.2,11.5-9.1,16.5-14.9
		c5.1-5.7,9.5-12,13.2-18.8c3.7,2,7.9,3.3,12.6,3.8c4.6,0.6,9.4,0.3,14.2-0.8c4.8-1.1,9.6-3.1,14.4-6.1c4.7-3,9.1-7.2,13.1-12.7
		c2.6-3.5,3.9-6.6,3.8-9.1C510.7,256.2,509.8,254.5,508.2,253.6z M422.9,288.5c-6.5,5-13.6,7.4-21.3,7.4c-9,0-14.9-3.4-17.5-10.1
		c-2.6-6.7-2.4-14.8,0.7-24.3c3.3-9.5,8.5-17.5,15.5-24.1c7-6.6,15.2-9.9,24.5-9.9c1.5,0,3,0.1,4.5,0.3c1.4,0.2,2.7,0.6,3.8,1
		c-0.9,2.4-1.7,5.1-2.5,8.1c-0.8,3-1,6.2-0.8,9.7c0.2,3.5,0.9,7.2,2.1,11.1c1.2,3.9,3.4,7.8,6.4,11.7
		C434.5,277.2,429.4,283.5,422.9,288.5z"/>
	<g id="XMLID_6_">
		<path id="XMLID_23_" class="st1" d="M534.4,272.9c4-7.5,8.1-15.7,12.6-24.6c4.4-8.9,8.9-18,13.5-27.1c4.6-9.1,9.4-18,14.4-26.6
			c5-8.6,10.1-16.4,15.4-23.5c-16.5-0.2-32-1.5-46.3-3.8c-14.3-2.3-26.2-5.6-35.7-9.7c-6.6-2.9-11.9-6.8-15.9-11.7
			c-4-5-6.9-10.1-8.9-15.5c-2-5.4-3-10.6-3-15.7c0-5.1,0.6-9.3,1.8-12.6c1.2-3.3,3-5.3,5.3-6.1c2.3-0.8,4.9,0.5,7.8,3.8
			c4.2,4.9,11.2,9.3,21.2,13.2c9.9,4,21.5,7.3,34.7,10.1c13.2,2.8,27.4,4.8,42.5,6.1c15.1,1.3,29.8,1.8,44.1,1.3
			c4.4-2.9,9.1-5.6,14.2-8.3c5.1-2.6,10.1-4.9,15.2-6.8c5.1-1.9,10-3.4,14.7-4.6c4.7-1.2,9.1-1.9,13.1-2.1c8.1-0.4,14.8,0.6,20,3.1
			c5.2,2.5,8.4,5.9,9.6,10.1c1.2,4.2,0.1,8.8-3.3,13.9c-3.4,5.1-9.5,9.8-18.3,14.2c-11.2,5.7-24,10.2-38.2,13.5
			c-14.2,3.3-28.9,5.5-44.1,6.6c-5.5,5.9-11,14.3-16.4,25c-5.4,10.7-10.8,22.4-16.2,35.2c-5.4,12.8-10.8,26-16.2,39.7
			c-5.4,13.7-10.9,26.6-16.4,38.7c-5.1,11-10.9,20.4-17.4,28.3c-6.5,7.8-13.4,13.9-20.8,18.2c-7.4,4.3-14.9,6.8-22.6,7.4
			c-7.7,0.7-15.2-0.8-22.5-4.3c-6.4-3.1-11.3-7.2-14.7-12.4c-3.4-5.2-5.7-10.5-6.8-16c-1.1-5.5-1.4-10.9-0.8-16
			c0.5-5.2,1.5-9.3,3-12.4c1.4-3.1,3-4.7,4.8-5c1.8-0.2,3.3,1.8,4.6,5.9c1.3,4.6,3.5,8.2,6.6,10.7c3.1,2.5,6.5,4.2,10.2,5
			c3.7,0.8,7.7,0.7,11.9-0.2c4.2-0.9,8-2.5,11.6-5c3.1-2,6.1-4.5,8.9-7.4c2.9-3,5.7-6.3,8.4-9.9c2.8-3.6,5.3-7.4,7.8-11.4
			C530.3,280.2,532.5,276.4,534.4,272.9z"/>
		<path id="XMLID_25_" class="st1" d="M646.4,207.8c4.6,1.3,8.6,1.8,12.1,1.5c3.4-0.3,6.4-1.3,9.1-2.8c2.6-1.5,5-3.5,6.9-5.8
			c2-2.3,3.9-4.8,5.6-7.4c2-2.6,4.3-3.7,7.1-3.3c2.8,0.4,5.2,1.8,7.3,4.1c2.1,2.3,3.5,5.2,4.3,8.8c0.8,3.5,0.2,7.1-1.8,10.6
			c-0.2,0.2-0.3,0.4-0.3,0.7c-1.3,2.2-3.4,5.8-6.1,10.9c-2.8,5.1-5.7,10.4-8.8,15.9c-3.1,5.5-5.9,10.8-8.6,15.9
			c-2.6,5.1-4.5,8.7-5.6,10.9c-1.8,3.5-3.5,7.1-5.3,10.6c-1.8,3.5-3.1,6.7-4.1,9.4c-1,2.8-1.3,5-0.8,6.6c0.4,1.7,2.1,2.5,5,2.5
			c4.2,0,8.8-1.1,13.7-3.3c5-2.2,10-5.2,15-8.9c5.1-3.7,9.9-8,14.4-12.9c4.5-4.8,8.4-10,11.7-15.5c2.2-3.5,4.5-5.9,6.8-7.1
			c2.3-1.2,4.2-1.4,5.8-0.5c1.5,0.9,2.4,2.6,2.6,5.1c0.2,2.5-0.7,5.7-2.6,9.4c-3.8,6.8-8.9,13.9-15.5,21.3
			c-6.6,7.4-13.8,14.1-21.5,20.2c-7.7,6.1-15.5,11.1-23.5,15c-7.9,4-15.1,5.9-21.5,5.9c-10.6,0-16.6-4.6-18.2-13.9
			c-1.5-9.3,2-21.7,10.6-37.3c3.7-6.4,7.5-12.5,11.2-18.3c3.7-5.8,7.4-11.3,10.9-16.4c-5.7,3.7-11.7,6.3-18,7.6
			c-6.3,1.3-12.1,1.3-17.4,0c-3.1,5.9-6.6,11.2-10.6,15.9c-3.1,3.5-6,5.9-8.8,7.1c-2.8,1.2-4.8,1.4-6.3,0.5c-1.4-0.9-2-2.6-1.8-5.1
			c0.2-2.5,1.7-5.7,4.3-9.4c1.8-2.4,3.5-5,5.1-7.8c1.7-2.8,3.2-5.6,4.8-8.4c-3.5-3.5-5.6-7.7-6.1-12.6c-0.6-4.8-0.2-9.9,1.2-15
			c1.3-5.2,3.5-10.2,6.4-15c3-4.8,6.3-9,10.1-12.6c3.7-3.5,7.7-6,11.7-7.4c4.1-1.4,7.9-1.4,11.4,0.2c2.6,1.1,4.2,2.8,4.6,5
			c0.4,2.2,0.4,4.7-0.2,7.4c-0.6,2.8-1.5,5.7-2.8,8.8C648.7,201.6,647.5,204.7,646.4,207.8z"/>
		<path id="XMLID_7_" class="st1" d="M792.5,248.5c-1.5-0.9-3.5-0.7-5.8,0.5c-2.3,1.2-4.6,3.6-6.8,7.1c-3.3,5.5-7.3,10.7-11.9,15.5
			c-4.6,4.9-9.5,9.1-14.5,12.9c-5.1,3.8-10.1,6.7-15,8.9c-5,2.2-9.5,3.3-13.7,3.3c-2.6,0-4.2-0.9-4.8-2.6c-0.6-1.8-0.3-4,0.7-6.8
			c1-2.8,2.4-5.8,4.1-9.3c1.8-3.4,3.6-6.9,5.6-10.4c2-3.3,4.2-7.2,6.8-11.6c2.5-4.4,5.1-9,7.8-13.7c2.6-4.7,5.3-9.5,8.1-14.2
			c2.8-4.7,5.2-9.2,7.4-13.4c2.2-4,3.2-7,3.1-9.1c-0.1-2.1-1.1-3.5-3-4.3c-1.9-0.8-4.4-1-7.4-0.8c-3.1,0.2-6.4,0.6-9.9,1
			c-3.5,0.7-6.5,1.3-8.9,1.8c-2.4,0.6-4.6,1.5-6.4,2.8c-1.9,1.3-3.6,3.2-5.3,5.6c-1.7,2.4-3.5,5.7-5.5,9.9c-2,4.2-4,8.4-6.1,12.7
			c-2.1,4.3-4.3,8.9-6.6,13.9c-2.3,5-4.7,10.4-7.3,16.2c-2.5,5.8-5.5,12.4-8.8,19.7c-3.3,7.3-5,13.5-5.1,18.7
			c-0.1,5.2,1,9.5,3.3,12.9c2.3,3.4,5.6,5.9,9.7,7.4c4.2,1.5,8.8,2.3,13.9,2.3c5.3,0,11.8-2,19.5-5.9c7.7-4,15.6-9,23.6-15
			c8-6.1,15.6-12.8,22.6-20.2c7-7.4,12.4-14.5,16.2-21.3c2.2-3.7,3.2-6.9,3-9.4C795,251.1,794.1,249.3,792.5,248.5z"/>
		<path id="XMLID_8_" class="st1" d="M746.4,180.4c3.4,1.3,7.2,1.8,11.4,1.5c4.2-0.3,8.4-1.4,12.7-3.3c4.3-1.9,8-4.3,11.2-7.3
			c3.2-3,5.5-6.3,6.8-9.9c1.3-3.6,1.2-7.3-0.3-11.1c-1.8-3.7-4.4-6.3-7.8-7.8c-3.4-1.4-7.2-1.9-11.2-1.5c-4.1,0.4-8.2,1.7-12.4,3.8
			c-4.2,2.1-7.8,4.6-10.9,7.6c-3.1,3-5.3,6.3-6.8,9.9c-1.4,3.6-1.4,7.2,0.2,10.7C740.6,176.6,743,179.1,746.4,180.4z"/>
		<path id="XMLID_12_" class="st1" d="M921.9,248.5c-1.5-0.9-3.5-0.7-5.8,0.5c-2.3,1.2-4.6,3.6-6.8,7.1c-2.4,4-5.8,8.1-10.1,12.4
			c-4.3,4.3-9.2,8.4-14.7,12.4c-5.5,4-11.4,7.6-17.7,10.9c-6.3,3.3-12.6,5.9-19,7.9c3.5-3.5,6.9-7.6,10.2-12.2
			c7.3-9.9,12.7-20,16.2-30.2c3.5-10.2,5.1-19.5,4.8-27.9c-0.3-8.4-2.6-15.3-6.9-20.7c-4.3-5.4-10.7-8.1-19.3-8.1
			c-7.3,0-14.3,2.1-21,6.4c-6.7,4.3-12.9,9.5-18.7,15.7c4-8.1,5.9-13.8,5.8-17c-0.1-3.2-3.1-4.6-9.1-4.1c-3.7,0.4-7,0.9-9.7,1.5
			c-2.8,0.6-5.3,1.5-7.8,3c-2.4,1.4-4.7,3.4-6.8,5.8c-2.1,2.4-4.1,5.7-6.1,9.9c-2,4.2-4.1,8.4-6.3,12.7c-2.2,4.3-4.5,8.9-6.8,13.9
			c-2.3,5-4.7,10.4-7.3,16.2c-2.5,5.8-5.3,12.4-8.4,19.7c-0.9,1.8-2.1,4.6-3.8,8.6c-1.7,4-3.6,8.5-5.8,13.7
			c-2.2,5.2-4.5,10.6-6.8,16.4c-2.3,5.7-4.5,11.2-6.6,16.4c-2.1,5.2-4,9.7-5.6,13.7c-1.7,4-2.7,6.7-3.1,8.3
			c-1.8,5.1-1.6,8.8,0.5,10.7c2.1,1.9,5.8,3.1,11.1,3.1h7.9c2.4,0,4.4-1.3,5.8-3.3c1.4-2,3.3-5.6,5.5-10.4l18.8-43
			c3.7,2.6,7.8,4.5,12.2,5.7c4.4,1.2,9.1,1.7,14.2,1.5c8.4,0.4,18.6-0.7,30.7-3.5c12.1-2.8,24.3-6.8,36.7-12.1
			c12.3-5.3,23.8-11.9,34.5-19.8c10.7-7.9,18.9-17,24.6-27.1c2.2-3.7,3.2-6.9,3-9.4C924.3,251.1,923.4,249.3,921.9,248.5z
			 M844.4,252.6c-1.4,4.1-3.3,8.1-5.5,12.1c-3.3,5.5-7.2,10.6-11.7,15.4c-4.5,4.7-9.3,8.8-14.2,12.1c-5,3.3-9.8,5.6-14.5,6.9
			c-4.7,1.3-9,1.3-12.7,0c-3.1-1.1-5.4-2.5-6.9-4.3c4-8.1,8.3-16.1,13.1-24c4.7-7.8,9.6-14.8,14.5-20.8c5-6.1,9.9-10.9,14.9-14.5
			c5-3.6,9.5-5.5,13.7-5.5c4,0,6.8,1.1,8.6,3.3c1.8,2.2,2.7,5,2.8,8.3C846.5,244.8,845.8,248.5,844.4,252.6z"/>
	</g>
</g>
<g id="Layer_2">
	<rect id="XMLID_1_" x="199.9" y="-112.2" class="st2" width="71.3" height="71.3"/>
	<rect id="XMLID_9_" x="82.6" y="-112.2" class="st0" width="71.3" height="71.3"/>
	<rect id="XMLID_2_" x="652.8" y="-112.2" class="st3" width="71.3" height="71.3"/>
	<rect id="XMLID_3_" x="539.5" y="-112.2" class="st4" width="71.3" height="71.3"/>
	<rect id="XMLID_4_" x="313.1" y="-112.2" class="st5" width="71.3" height="71.3"/>
	<rect id="XMLID_5_" x="426.3" y="-112.2" class="st1" width="71.3" height="71.3"/>
</g>
</svg>
